<svg width="200" height="200" viewBox="0 0 200 200" xmlns="http://www.w3.org/2000/svg">
  <style>
    path, circle {
      stroke: black;
      stroke-width: 1.5;
      fill: none;
      stroke-linecap: round;
      stroke-linejoin: round;
    }
  </style>

  <!-- Body -->
  <path d="M 90 100 Q 85 130 90 160 Q 95 130 90 100 Z" />

  <!-- Head/Thorax connection -->
  <circle cx="88" cy="93" r="5" />

  <!-- Antennae -->
  <path d="M 88 93 C 75 75 70 70 75 60" />
  <circle cx="75" cy="60" r="2" />
  <path d="M 88 93 C 90 75 95 70 100 60" />
  <circle cx="100" cy="60" r="2" />

  <!-- Top Wing -->
  <path d="M 88 93 
           C 110 50 160 40 170 70 
           C 180 90 170 110 150 120 
           C 130 130 100 110 88 93 Z" />
  <!-- Adjusted top wing path for more accurate scalloped edge -->
  <path d="M 88 93 
           C 110 50 160 40 170 70 
           C 175 75 178 85 175 95 
           C 170 105 160 115 150 120 
           C 130 130 100 110 88 93 Z" />

  <!-- Bottom Wing -->
  <path d="M 88 93 
           C 95 130 130 150 150 140 
           C 160 135 165 125 150 120 
           C 130 130 100 110 88 93 Z" />
  <!-- Adjusted bottom wing path for more accurate scalloped edge -->
  <path d="M 88 93 
           C 95 130 130 150 150 140 
           C 155 135 158 128 150 120 
           C 130 130 100 110 88 93 Z" />
</svg>